<svg width="79" height="82" viewBox="0 0 79 82" fill="none" xmlns="http://www.w3.org/2000/svg">
<path fill-rule="evenodd" clip-rule="evenodd" d="M5.29957 0.337153C4.23561 0.984978 4.50611 2.44258 5.8045 3.14439C6.3996 3.46831 6.5619 3.46831 7.49962 3.27036C8.76195 3.01843 9.19475 2.67652 8.83408 2.24464C8.65375 2.0107 8.40129 1.97471 7.67996 2.06469C6.63403 2.19065 5.98483 1.88473 6.1832 1.36288C6.32746 1.00297 6.95863 0.984978 7.64389 1.34488C8.23899 1.6508 8.83408 1.70478 8.83408 1.41686C8.83408 0.247177 6.59796 -0.454633 5.29957 0.337153ZM15.3261 0.301169C14.8211 0.499115 14.4244 0.948994 14.4244 1.34489C14.4244 2.26264 14.8211 2.87447 15.6867 3.32435C16.4441 3.70225 16.5523 3.84621 16.6605 4.45805C16.7146 4.88993 17.0212 5.48377 17.3999 5.93365C17.7425 6.34753 18.031 6.74343 18.031 6.79741C18.013 7.2293 15.8671 8.95683 12.5309 11.2422C9.93412 13.0237 6.95864 15.9929 5.33564 18.4403C3.58642 21.0676 3.04542 22.1293 1.9454 25.0085C1.06177 27.3299 1.00767 27.5458 0.845368 29.9572C0.737169 31.7027 0.755202 33.0343 0.881435 34.276C1.188 36.8673 1.80113 40.7542 2.07163 41.726C2.57656 43.5795 2.90116 45.0911 3.69462 49.3919C4.14545 51.8572 4.97498 55.7442 5.51598 58.0296C6.05697 60.297 6.70617 63.4641 6.95864 65.0477C7.19307 66.6312 7.60783 68.8087 7.84227 69.9064C8.09473 70.9861 8.52753 73.2894 8.83409 75.017C9.46526 78.688 9.48329 78.778 9.97019 79.2998C10.8177 80.2356 17.2556 81.8011 20.195 81.7831C29.6084 81.7112 32.8363 81.2973 39.2922 79.2638C40.4103 78.9219 41.4382 78.634 41.5825 78.634C42.8087 78.634 50.04 75.1249 53.7369 72.7316C54.8369 72.0118 58.3714 68.5387 58.7681 67.7649C59.0206 67.3151 58.9665 67.0091 58.2632 64.0939C57.8304 62.3484 57.1271 59.2532 56.7123 57.2198C55.8828 53.2429 55.7025 52.4871 55.1795 50.8315C54.6385 49.086 54.5664 48.6001 54.8729 48.4742C55.0352 48.4202 56.1172 48.7441 57.2894 49.194C58.4616 49.6258 61.0042 50.4536 62.9338 51.0115C64.8634 51.5693 66.9552 52.1811 67.5684 52.3791C68.1815 52.577 68.9208 52.721 69.1913 52.685C69.6602 52.631 69.6963 52.577 69.6782 51.8212C69.6602 51.0295 69.1913 48.1862 68.6323 45.5949C68.47 44.8931 68.2716 43.3635 68.1634 42.1939C68.0552 41.0242 67.8208 39.4226 67.6044 38.6488C67.4061 37.875 67.0995 35.8776 66.9011 34.222C66.7028 32.5665 66.5044 30.9649 66.4503 30.659C66.3601 30.2991 66.4142 30.0471 66.5765 29.9212C66.7028 29.8132 67.947 29.1474 69.3176 28.4456C71.9865 27.0959 72.5996 26.6281 73.2849 25.4584C73.7537 24.6846 74.5292 22.2192 74.7816 20.7796C74.9079 20.0058 75.0341 19.8079 75.7374 19.286C77.0719 18.3143 78.2621 17.2706 78.2621 17.0906C78.2621 16.5508 75.6292 15.831 73.6997 15.831C72.4373 15.831 71.6799 16.1189 70.7242 16.9827C70.3274 17.3426 69.9307 17.6305 69.8405 17.6305C69.7504 17.6305 69.534 17.1626 69.3717 16.5868C69.0651 15.4891 66.1257 10.0725 65.2421 8.93884C64.2863 7.75116 63.7994 8.12906 63.2223 10.5044C62.9699 11.5121 62.9338 12.16 63.042 14.1394C63.1141 15.5071 63.0961 16.5508 63.0059 16.5508C62.9158 16.5508 62.6092 16.1009 62.3026 15.5251C61.2026 13.4556 59.0386 11.1882 58.5878 11.6381C58.2812 11.944 58.3894 14.2474 58.7681 15.777C58.9845 16.5868 59.1468 17.3966 59.1468 17.5945C59.1468 17.8824 58.2452 18.2603 53.4664 19.9519C49.1744 21.4814 47.7138 21.9313 47.4793 21.7874C47.299 21.6974 46.9023 21.1935 46.5957 20.6537C46.5008 20.4921 46.38 20.2841 46.2461 20.0535L46.2453 20.052C45.9468 19.5378 45.5834 18.912 45.2973 18.4403C44.0169 16.2269 42.2677 14.2654 40.1398 12.6638C37.02 10.3065 35.2889 9.49669 30.5822 8.25502C28.0215 7.5892 26.3083 7.37326 23.3328 7.37326C22.9902 7.37326 20.9885 5.95164 20.7 5.51976C20.6278 5.39379 20.5557 4.88993 20.5557 4.36807C20.5557 3.84621 20.4655 3.23438 20.3573 3.00044C20.1229 2.49658 19.3114 1.97472 18.7704 1.97472C18.536 1.97472 18.2474 1.75877 18.0491 1.41687C17.8687 1.11095 17.5441 0.751047 17.3458 0.625081C16.949 0.337159 15.7228 0.139213 15.3261 0.301169ZM25.7853 10.2525C28.1657 10.6304 30.6904 11.7461 31.7543 12.8978C33.1249 14.3554 35.5233 17.8284 36.5872 19.9159C37.0922 20.9056 37.2905 22.3092 36.9479 22.3272C36.8036 22.3272 35.6135 22.4352 34.279 22.5612L31.8625 22.7771L31.2314 21.4095C28.9231 16.3888 28.7969 16.1909 25.8034 12.6278C24.7033 11.3142 23.8017 10.1625 23.8017 10.0545C23.8017 9.94657 23.9459 9.91058 24.1263 9.96456C24.2886 10.0006 25.046 10.1445 25.7853 10.2525ZM21.4393 11.0983C21.782 11.4222 22.5574 12.8438 23.5492 14.9312C24.2256 16.396 25.0168 18.0785 25.5104 19.1282L25.5105 19.1283L25.512 19.1314C25.6362 19.3957 25.7416 19.6198 25.8214 19.7899C26.8313 21.9133 27.2641 23.047 27.1559 23.299C27.1198 23.4249 26.5067 23.5689 25.7493 23.6409C25.0279 23.6949 23.423 23.9648 22.1787 24.2167C21.8842 24.2782 21.6173 24.3356 21.3752 24.3876C20.0298 24.6765 19.4514 24.8008 19.1737 24.5673C18.9643 24.3912 18.926 24.0116 18.8588 23.3456C18.8436 23.1951 18.8269 23.0299 18.8065 22.8491C18.2835 17.9904 18.7884 11.5481 19.7803 10.8463C20.2672 10.4864 20.8623 10.5764 21.4393 11.0983ZM34.0806 11.4762C34.5489 11.7228 35.2704 12.1191 35.9204 12.4762C36.1716 12.6143 36.4122 12.7464 36.6233 12.8618C38.2463 13.7435 38.8955 14.1934 40.1759 15.2551C41.6185 16.4608 45.2612 21.1755 45.2612 21.8234C45.2612 22.0213 44.8645 22.1113 43.512 22.1653C41.3661 22.2732 41.0775 22.1473 40.4644 20.7257C39.5086 18.5123 38.8955 17.4685 37.7414 16.0109C35.8659 13.6716 34.279 12.07 33.0888 11.2962C31.7904 10.4504 32.4216 10.5584 34.0806 11.4762ZM17.3097 11.7641C17.3097 11.89 17.1835 12.3579 17.0212 12.7898C16.3179 14.8053 15.831 17.4325 15.6687 20.3118C15.5785 21.9313 15.5425 23.4249 15.6146 23.6049C15.6687 23.7848 15.6507 24.5406 15.5966 25.2784L15.4703 26.6281L14.6228 27.006C14.1719 27.2039 13.108 27.6178 12.2604 27.9237C11.4128 28.2296 10.403 28.6255 10.0243 28.8055C9.10459 29.2374 9.01443 29.2374 9.01443 28.7155C9.01443 27.3839 10.4751 20.9596 11.2686 18.7282C12.062 16.5328 13.2883 14.6073 14.8933 12.9877C15.9933 11.908 16.4982 11.5121 16.8409 11.5121C17.1113 11.5121 17.3097 11.6201 17.3097 11.7641ZM9.98822 15.9569C9.44722 17.2166 8.83409 19.286 7.82423 23.281C7.0488 26.3041 6.79634 27.5998 6.7783 28.6975L6.76027 30.1371L4.86678 31.0549L2.97329 31.9726L2.91919 29.8132C2.84706 26.3581 3.42412 24.5766 6.07501 20.1858C6.74224 19.0701 7.62587 17.7745 8.00456 17.3066C8.65376 16.5508 10.0243 15.2911 10.2046 15.2911C10.2407 15.2911 10.1505 15.597 9.98822 15.9569ZM60.7518 19.7359C60.878 20.0238 61.3829 20.7796 61.8698 21.4275C63.1863 23.209 63.7092 24.4686 63.6191 25.6383C63.5469 26.4841 63.4027 26.772 62.4649 27.9597C61.8879 28.7155 61.0583 29.8312 60.6256 30.461C60.1928 31.0729 59.6878 31.7747 59.4895 32.0266C59.2911 32.2785 59.1829 32.6204 59.237 32.8364C59.3272 33.1063 59.3091 33.1423 59.1829 32.9264C58.9665 32.6024 58.155 28.4096 57.8845 26.2682C57.7763 25.4224 57.4697 23.7848 57.2353 22.5971C56.9828 21.4275 56.8025 20.4557 56.8386 20.4377C56.9648 20.3478 60.1567 19.286 60.337 19.268C60.4452 19.268 60.6256 19.466 60.7518 19.7359ZM54.4582 22.4172C54.5664 22.6691 54.6385 23.245 54.6385 23.7128C54.6385 24.1807 54.891 25.5304 55.1795 26.718C55.7566 28.9674 56.8386 34.5639 56.7304 34.6719C56.5681 34.8338 54.7648 34.9958 53.5205 34.9418C52.4024 34.9058 52.1139 34.8338 52.0237 34.5819C51.9696 34.42 51.1581 31.9186 50.2384 29.0574C50.1192 28.6894 50.0074 28.3458 49.9029 28.0249C48.8999 24.9434 48.576 23.9486 48.9352 23.4971C49.1064 23.2819 49.4329 23.1902 49.915 23.0548C50.0213 23.0249 50.1351 22.9929 50.2564 22.9571C50.8335 22.7771 51.7171 22.4892 52.204 22.3092C53.5746 21.8234 54.2418 21.8414 54.4582 22.4172ZM46.4695 24.5046C46.5957 24.7206 47.4433 27.5458 48.958 32.8364C49.7695 35.7156 52.8532 48.7621 52.7631 48.924C52.709 48.996 51.7352 49.6978 50.563 50.4716C48.8318 51.6413 47.84 52.1272 44.7924 53.3688C41.4021 54.7365 39.7791 55.2403 39.5627 55.0064C39.5086 54.9524 39.3463 54.3586 39.2021 53.6747C39.0758 53.0089 38.625 51.1914 38.2283 49.6618C37.9873 48.7731 37.7098 47.7142 37.47 46.7994L37.4696 46.7978C37.2968 46.1388 37.1438 45.5548 37.0381 45.163C36.8036 44.2273 36.2807 41.8699 35.8839 39.9445C34.8921 35.0138 32.9986 25.8723 32.8904 25.5124C32.7281 24.9545 33.5396 24.7746 37.0561 24.5586C41.9071 24.2527 46.2891 24.2347 46.4695 24.5046ZM27.8411 26.2502C28.1116 26.5561 29.2117 29.9392 29.2117 30.497C29.2117 30.623 29.6625 32.2965 30.2215 34.204C30.7805 36.1295 31.2674 37.875 31.3215 38.091C31.329 38.1232 31.3373 38.1527 31.345 38.1801C31.3643 38.2489 31.3797 38.3039 31.3679 38.3521C31.321 38.5438 30.8449 38.6304 28.4794 39.0608C28.2335 39.1055 27.9672 39.154 27.6788 39.2067C23.2066 40.0344 21.4393 40.3224 21.2951 40.2144C21.2049 40.1784 21.0065 39.3866 20.8262 38.4689C20.7076 37.7982 20.5216 36.7816 20.3597 35.8966L20.3596 35.8963C20.3 35.5704 20.2436 35.2622 20.195 34.9958C20.0147 34.0061 19.8163 32.7104 19.7442 32.1166C19.6901 31.5227 19.5098 30.371 19.3475 29.5613C19.1311 28.3916 19.113 28.0137 19.2753 27.8157C19.5098 27.5278 21.4574 26.844 23.6213 26.2861C25.4427 25.8003 27.4264 25.7823 27.8411 26.2502ZM15.6867 28.8595C15.6867 28.8774 16.1376 31.3788 16.6966 34.384C17.9048 40.9702 17.9769 41.4201 17.6523 41.672C17.3277 41.9059 13.3785 42.8237 12.6571 42.8237C12.0801 42.8237 12.0079 42.6977 11.6473 41.0242C10.403 35.2837 9.53739 31.0729 9.59149 31.0369C9.66362 30.9649 13.8473 29.2374 14.5146 29.0034C15.0556 28.8235 15.6867 28.7335 15.6867 28.8595ZM64.4847 31.4328C64.5388 31.7207 64.665 32.2245 64.7552 32.5665C64.8453 32.9084 64.9175 33.4662 64.9175 33.7721V34.366H62.4108C61.0223 34.366 59.778 34.312 59.6157 34.258C59.4534 34.204 59.3272 33.9701 59.3272 33.7541C59.3452 33.4122 59.3632 33.4122 59.5255 33.6822C59.9403 34.42 61.3288 33.7361 63.024 31.9546C63.565 31.3968 64.0699 30.9469 64.1781 30.9469C64.2863 30.9469 64.4125 31.1628 64.4847 31.4328ZM7.44553 32.2425C7.5898 32.4765 7.98653 34.4379 8.3472 36.6154C9.28492 42.3558 9.42919 43.3815 9.24886 43.5435C8.87016 43.8854 5.15531 44.2453 4.97498 43.9394C4.65038 43.3995 2.70279 35.1578 2.70279 34.258C2.70279 33.9521 3.11756 33.6822 4.74055 32.8724C5.84058 32.3325 6.86847 31.8646 6.97667 31.8646C7.1029 31.8466 7.3193 32.0266 7.44553 32.2425ZM56.5681 36.8313C57.091 36.9213 57.1812 37.0292 57.4337 37.875C57.5779 38.3969 57.7042 39.1167 57.7042 39.4766C57.7042 39.8365 57.8665 40.8442 58.0468 41.708C58.2452 42.5717 58.4976 44.1193 58.6058 45.163C58.714 46.1888 58.8403 47.1065 58.8944 47.1605C58.9304 47.2325 58.9124 47.3405 58.8403 47.3764C58.6419 47.5024 54.9992 46.6746 54.8189 46.4767C54.6926 46.3327 52.8172 37.1912 52.8352 36.7233C52.8352 36.5254 53.1418 36.5074 54.4221 36.5974C55.2877 36.6693 56.2435 36.7773 56.5681 36.8313ZM63.3486 36.9213C64.5388 36.9573 65.5306 37.0292 65.5667 37.0832C65.6749 37.2812 66.3241 41.9779 66.5405 44.2633C66.6667 45.397 66.9011 47.0525 67.0995 47.9343C67.2798 48.8161 67.4061 49.5719 67.388 49.6078C67.2979 49.6798 61.8157 48.2582 61.6895 48.1143C61.5272 47.9703 60.2469 38.6668 60.2288 37.6411C60.2288 36.6873 60.2288 36.6693 60.7338 36.7773C61.0042 36.8313 62.1764 36.9033 63.3486 36.9213ZM31.7904 41.1681C31.9527 41.3481 32.5298 43.3095 33.0888 45.5409C33.6298 47.7543 34.4413 51.0655 34.8921 52.883C35.5774 55.5822 35.6856 56.2301 35.4872 56.41C35.361 56.518 34.0806 56.8419 32.638 57.1298C31.5263 57.3378 30.0721 57.642 28.9847 57.8694L28.9837 57.8696C28.6603 57.9372 28.3694 57.9981 28.1297 58.0476C27.1018 58.2815 26.2001 58.4255 26.128 58.3355C26.0558 58.2635 25.6591 56.9139 25.2624 55.3303C24.8656 53.7467 24.3427 51.7493 24.0902 50.9035C23.8377 50.0577 23.4049 48.3482 23.0984 47.1245C22.8099 45.8829 22.4312 44.5332 22.2689 44.1193C21.8541 43.0756 22.0164 42.9317 24.1263 42.4638C25.082 42.2478 26.9755 41.798 28.31 41.474C31.1773 40.7542 31.4117 40.7362 31.7904 41.1681ZM18.6442 44.2453C18.7524 44.4073 19.618 48.1143 20.2131 50.9215C20.6459 53.0089 21.7279 57.3278 22.1246 58.6054C22.2869 59.1273 22.3771 59.6131 22.3049 59.6671C22.1607 59.8111 17.8687 59.4512 16.4802 59.1633C15.308 58.9293 15.272 58.8753 14.9834 56.7159C14.8752 55.8881 14.3883 53.4948 13.9014 51.4074C12.3686 44.8751 12.3686 44.8031 13.2883 44.8031C13.5588 44.7851 14.6047 44.6412 15.5966 44.4612C17.6704 44.0833 18.5179 44.0114 18.6442 44.2453ZM10.2768 46.2607C10.6194 46.9446 11.2145 49.9498 11.5571 52.577C11.7555 54.1966 12.044 56.0681 12.1883 56.7699C12.4948 58.3175 12.4948 58.4794 12.1883 58.4794C11.6653 58.4794 8.36523 57.3458 8.1849 57.1118C8.0767 56.9679 7.9144 56.518 7.8603 56.0861C7.78817 55.6722 7.30127 53.4408 6.76027 51.1194C6.21927 48.8161 5.80451 46.8546 5.85861 46.7826C5.89468 46.7106 6.41764 46.6027 6.97667 46.5307C7.55373 46.4587 8.43736 46.2967 8.92426 46.1708C9.95215 45.8829 10.1145 45.9008 10.2768 46.2607ZM53.5385 51.1734C53.809 51.4973 54.35 53.9447 55.1074 58.2095L55.7025 61.6286L55.2336 61.9885L55.1571 62.0484L55.157 62.0485C54.8773 62.2676 54.3647 62.6691 53.9713 62.9962C52.9434 63.824 52.3844 64.1299 52.0598 64.004C51.8434 63.932 48.8498 54.6285 48.8679 54.0706C48.8679 53.9627 49.0843 53.7467 49.3728 53.5848C49.6433 53.4228 50.581 52.757 51.4647 52.1092C52.3483 51.4613 53.1237 50.9215 53.1959 50.9215C53.268 50.9215 53.4303 51.0295 53.5385 51.1734ZM46.74 57.5077C47.6597 60.153 48.8498 64.3279 48.9761 65.3176L49.0843 66.1454L47.4974 66.8472C43.3136 68.6647 43.1333 68.7367 42.9169 68.4668C42.8087 68.3228 42.6464 67.7829 42.5562 67.2611C42.0874 64.1479 41.6005 61.6106 41.1857 60.279C40.9333 59.4332 40.6988 58.5154 40.6808 58.2095C40.6628 57.7057 40.7169 57.6517 42.1956 57.1298C43.0431 56.8239 44.053 56.374 44.4497 56.1221C45.2793 55.5822 45.6399 55.4383 45.8924 55.4923C46.0006 55.5103 46.3793 56.428 46.74 57.5077ZM36.8217 60.7468C36.8938 61.4306 37.1643 62.7623 37.4168 63.698C37.6692 64.6338 38.1381 66.4693 38.4447 67.7829C39.1119 70.5362 39.0939 70.5722 37.525 71.0041C36.9659 71.148 35.902 71.4719 35.1626 71.7059C33.6839 72.1917 30.6182 72.8756 30.0231 72.8756C29.5903 72.8756 29.5543 72.7136 28.4903 67.567C28.2018 66.1814 27.751 64.3819 27.4805 63.5541C27.21 62.7083 27.0657 61.9885 27.1559 61.9165C27.246 61.8445 29.2297 61.3227 31.556 60.7468C33.8823 60.189 35.92 59.6491 36.0643 59.5592C36.5512 59.2532 36.6954 59.4692 36.8217 60.7468ZM10.944 60.4589C11.8637 60.7468 12.7473 60.9988 12.8916 60.9988C13.0358 60.9988 13.1981 61.1787 13.2522 61.3947C13.3965 62.0605 13.8473 65.1197 13.9736 66.3973C14.0457 67.0451 14.2621 68.3408 14.4424 69.2765C14.6408 70.2123 14.8572 71.6159 14.9113 72.3717L15.0195 73.7753L13.7752 73.6493C13.0899 73.5954 12.2424 73.4514 11.8997 73.3434C11.3046 73.1455 11.2686 73.0915 11.1243 72.0658C11.0341 71.4719 10.7817 69.9783 10.5472 68.7367C10.3128 67.495 10.0604 66.0734 9.98822 65.5875C9.93412 65.0837 9.64559 63.6441 9.35706 62.3844C9.06853 61.1067 8.83409 60.045 8.83409 59.991C8.83409 59.8291 9.30296 59.9371 10.944 60.4589ZM18.3917 61.5566C19.0409 61.7546 20.2131 61.9525 21.0065 62.0065C23.0623 62.1325 23.2607 62.2044 23.2607 62.6723C23.2607 62.8883 23.423 63.5721 23.6213 64.1839C23.8017 64.7957 24.2525 66.6852 24.6132 68.4128C24.9738 70.1223 25.3886 71.9578 25.5509 72.4797C25.7493 73.2175 25.7673 73.5054 25.623 73.6493C25.3525 73.9193 21.241 74.0272 19.8344 73.8293L18.8425 73.6853L18.6983 72.6956C18.4097 70.9141 17.5261 66.1634 17.0392 63.896C16.6786 62.2044 16.6245 61.6286 16.7868 61.4306C16.7943 61.421 16.8016 61.4116 16.8086 61.4025C16.8697 61.3236 16.9137 61.2667 16.9714 61.234C17.1208 61.1495 17.3617 61.2267 18.2258 61.5035C18.2787 61.5204 18.334 61.5382 18.3917 61.5566ZM11.521 4.31409C11.9719 4.31409 12.3145 4.18812 12.5309 3.95419C12.9637 3.46832 13.1981 3.72025 13.126 4.60201C13.0719 5.23184 12.9998 5.32182 12.2063 5.64573C11.7119 5.85569 11.5059 5.94317 11.3234 5.90815C11.193 5.88314 11.0747 5.79567 10.8718 5.64573C10.6013 5.44778 10.3669 5.19585 10.3308 5.08788C10.2046 4.72798 10.8358 4.31409 11.521 4.31409Z" fill="#424242"/>
</svg>
